<?xml version="1.0" encoding="utf-8"?>
<svg xmlns="http://www.w3.org/2000/svg"
	xmlns:xlink="http://www.w3.org/1999/xlink"
	width="18px" height="24px" viewBox="0 0 18 24">
<filter filterUnits="objectBoundingBox" x="0.00" y="0.00" width="100.00" height="100.00" id="filter0">
<feFlood flood-color="rgb(25,25,37)" result="coFloodOut1"/>
<feComposite in="coFloodOut1" in2="SourceAlpha" operator="in" result="coOverlay1"/>
<feBlend in="coOverlay1" in2="SourceGraphic" mode="normal" result="colorOverlay1"/>
</filter>
<g filter="url(#filter0)"><path fillRule="evenodd" d="M 1.5 24C 1.5 24 16.5 24 16.5 24 17.33 24 18 23.33 18 22.5 18 22.5 18 6 18 6 18 5.17 17.33 4.5 16.5 4.5 16.5 4.5 13.49 4.5 13.49 4.5 13.46 2.01 11.46-0 9-0 6.54-0 4.54 2.01 4.51 4.5 4.51 4.5 1.5 4.5 1.5 4.5 0.67 4.5-0 5.17-0 6-0 6-0 22.5-0 22.5-0 23.33 0.67 24 1.5 24ZM 16.5 6C 16.5 6 16.5 22.5 16.5 22.5 16.5 22.5 1.5 22.5 1.5 22.5 1.5 22.5 1.5 6 1.5 6 1.5 6 16.5 6 16.5 6ZM 9 1.5C 10.63 1.5 11.96 2.84 11.99 4.5 11.99 4.5 6.01 4.5 6.01 4.5 6.04 2.84 7.37 1.5 9 1.5ZM 6.75 9C 6.75 9 11.25 9 11.25 9 11.66 9 12 8.66 12 8.25 12 7.84 11.66 7.5 11.25 7.5 11.25 7.5 6.75 7.5 6.75 7.5 6.34 7.5 6 7.84 6 8.25 6 8.66 6.34 9 6.75 9Z" fill="rgb(0,0,0)"/></g></svg>