<?xml version="1.0" encoding="utf-8"?>
<svg xmlns="http://www.w3.org/2000/svg"
	xmlns:xlink="http://www.w3.org/1999/xlink"
	width="476px" height="96px" viewBox="0 0 476 96">
<style type="text/css"><![CDATA[
.style0 {
  font-size: 130.75px;
  font-family: "PressStyle";
  fill: rgb(255,255,255);
  text-transform: uppercase;
}
.style1 {
  font-size: 26.4357px;
  font-family: "Poppins-Regular";
  fill: rgb(255,255,255);
  text-transform: uppercase;
}
]]></style>
<filter filterUnits="objectBoundingBox" x="0.00" y="0.00" width="100.00" height="100.00" id="filter0">
<feFlood flood-color="rgb(255,255,255)" result="coFloodOut1"/>
<feComposite in="coFloodOut1" in2="SourceAlpha" operator="in" result="coOverlay1"/>
<feBlend in="coOverlay1" in2="SourceGraphic" mode="normal" result="colorOverlay1"/>
</filter>
<g><text transform="matrix(0.75,0.00,0.00,0.75,0.22,69.47)" class="style0"><tspan x="0.00 69.56 131.27 211.29 297.32 361.52" fill="rgb(255,255,255)">Plants</tspan></text><g transform="translate(189.00 4.00)" filter="url(#filter0)"><path fillRule="evenodd" d="M 125.27 47.67C 125.27 47.67 122.97 47.67 122.97 47.67 122.97 47.67 121.38 57.2 121.38 57.2 121.38 57.29 121.37 57.37 121.34 57.44 121.34 57.44 120.65 61.6 120.65 61.6 120.65 61.6 122.34 61.6 122.34 61.6 122.56 61.6 122.78 61.67 122.92 61.89 123.07 62.04 123.14 62.33 123.07 62.55 123.07 62.55 122.34 65.49 122.34 65.49 122.26 65.78 121.97 66 121.6 66 121.6 66 98.16 66 98.16 66 97.8 66 97.5 65.78 97.43 65.41 97.43 65.41 96.7 62.48 96.7 62.48 96.62 62.26 96.7 62.04 96.84 61.82 96.99 61.67 97.21 61.6 97.43 61.6 97.43 61.6 99.12 61.6 99.12 61.6 99.12 61.6 96.8 47.67 96.8 47.67 96.8 47.67 94.5 47.67 94.5 47.67 94.06 47.67 93.77 47.37 93.77 46.93 93.77 46.93 93.77 43.27 93.77 43.27 93.77 42.83 94.06 42.53 94.5 42.53 94.5 42.53 109.15 42.53 109.15 42.53 109.15 42.53 109.15 39.15 109.15 39.15 109.04 37.28 108.57 35.21 107.54 34.61 107.02 34.29 106.34 34.37 105.48 34.84 105.32 38.35 102.93 40.33 98.9 40.33 98.46 40.33 98.16 40.04 98.16 39.6 98.16 35.96 100.46 33.85 104.43 33.74 105.92 32.85 107.2 32.72 108.27 33.37 108.61 33.57 108.9 33.85 109.15 34.17 109.15 34.17 109.15 30.78 109.15 30.78 106.41 30.58 105.16 28.97 104.68 27.94 103.73 26.18 103.8 23.83 104.9 22.29 105.05 22.15 105.27 22 105.49 22 106.36 22 107.2 22.37 107.93 23.1 108.45 22.41 109.13 22 109.88 22 110.64 22 111.33 22.42 111.85 23.12 112.58 22.36 113.41 22 114.28 22 114.5 22 114.72 22.15 114.87 22.29 115.96 23.83 116.04 26.18 115.08 27.94 114.54 28.97 113.29 30.57 110.62 30.78 110.62 30.78 110.62 32.4 110.62 32.4 110.79 32.23 110.99 32.09 111.2 31.97 112.24 31.35 113.55 31.45 115.11 32.27 119.09 32.34 122.34 36.7 122.34 40.33 122.34 40.55 122.26 40.7 122.12 40.85 121.97 40.99 121.82 41.07 121.6 41.07 118.26 40.86 114.78 36.32 114.33 33.57 113.3 33.05 112.47 32.96 111.93 33.29 111.46 33.56 110.68 34.46 110.62 37.31 110.62 37.31 110.62 42.53 110.62 42.53 110.62 42.53 125.27 42.53 125.27 42.53 125.71 42.53 126 42.83 126 43.27 126 43.27 126 46.93 126 46.93 126 47.37 125.71 47.67 125.27 47.67ZM 99.63 38.79C 102.27 38.65 103.73 37.4 103.95 35.2 101.97 35.35 99.99 36.15 99.63 38.79ZM 107.03 25.38C 107.08 25.09 107.14 24.81 107.22 24.54 106.86 24.11 106.43 23.68 105.85 23.54 105.34 24.64 105.34 26.11 105.93 27.28 106.29 27.94 106.73 28.38 107.32 28.75 107.12 28.15 106.98 27.44 106.96 26.66 106.96 26.58 106.95 26.49 106.95 26.4 106.95 26.04 106.98 25.71 107.03 25.38ZM 113.77 27.28C 114.35 26.11 114.43 24.64 113.84 23.54 113.34 23.68 112.91 24.11 112.55 24.54 112.63 24.81 112.69 25.09 112.74 25.38 112.79 25.71 112.81 26.04 112.81 26.4 112.81 26.49 112.81 26.58 112.81 26.67 112.81 26.73 112.8 26.78 112.8 26.84 112.8 26.85 112.8 26.86 112.8 26.88 112.75 27.57 112.61 28.21 112.37 28.75 112.96 28.38 113.47 27.94 113.77 27.28ZM 120.8 39.38C 120.36 36.96 118.31 34.32 115.89 33.81 116.48 35.79 118.67 38.65 120.8 39.38ZM 98.38 63.07C 98.38 63.07 98.75 64.53 98.75 64.53 98.75 64.53 121.02 64.53 121.02 64.53 121.02 64.53 121.38 63.07 121.38 63.07 121.38 63.07 119.77 63.07 119.77 63.07 119.77 63.07 99.99 63.07 99.99 63.07 99.99 63.07 98.38 63.07 98.38 63.07ZM 98.79 50.6C 98.79 50.6 103.29 50.6 103.29 50.6 103.73 50.6 104.02 50.89 104.02 51.33 104.02 51.77 103.73 52.07 103.29 52.07 103.29 52.07 99.03 52.07 99.03 52.07 99.03 52.07 100.58 61.6 100.58 61.6 100.58 61.6 119.11 61.6 119.11 61.6 119.11 61.6 119.73 57.93 119.73 57.93 119.73 57.93 113.55 57.93 113.55 57.93 113.11 57.93 112.81 57.64 112.81 57.2 112.81 56.76 113.11 56.47 113.55 56.47 113.55 56.47 119.98 56.47 119.98 56.47 119.98 56.47 121.46 47.67 121.46 47.67 121.46 47.67 98.31 47.67 98.31 47.67 98.31 47.67 98.79 50.6 98.79 50.6ZM 111.34 26.62C 111.34 26.61 111.34 26.6 111.34 26.59 111.35 26.53 111.35 26.47 111.35 26.4 111.35 26.35 111.35 26.29 111.35 26.24 111.3 24.63 110.52 23.47 109.88 23.47 109.25 23.47 108.47 24.63 108.42 26.24 108.42 26.29 108.42 26.35 108.42 26.4 108.42 26.47 108.42 26.53 108.42 26.59 108.42 26.6 108.42 26.61 108.42 26.62 108.47 27.63 108.81 28.54 109.29 29.03 109.48 29.22 109.69 29.33 109.88 29.33 110.08 29.33 110.29 29.22 110.48 29.03 110.95 28.54 111.3 27.63 111.34 26.62ZM 124.53 44C 124.53 44 95.23 44 95.23 44 95.23 44 95.23 46.2 95.23 46.2 95.23 46.2 97.43 46.2 97.43 46.2 97.43 46.2 122.34 46.2 122.34 46.2 122.34 46.2 124.53 46.2 124.53 46.2 124.53 46.2 124.53 44 124.53 44ZM 110.62 57.93C 110.62 57.93 109.88 57.93 109.88 57.93 109.44 57.93 109.15 57.64 109.15 57.2 109.15 56.76 109.44 56.47 109.88 56.47 109.88 56.47 110.62 56.47 110.62 56.47 111.06 56.47 111.35 56.76 111.35 57.2 111.35 57.64 111.06 57.93 110.62 57.93ZM 106.95 52.07C 106.95 52.07 106.22 52.07 106.22 52.07 105.78 52.07 105.49 51.77 105.49 51.33 105.49 50.89 105.78 50.6 106.22 50.6 106.22 50.6 106.95 50.6 106.95 50.6 107.39 50.6 107.69 50.89 107.69 51.33 107.69 51.77 107.39 52.07 106.95 52.07ZM 91.22 38.5C 91.22 38.5 87.83 38.5 87.83 38.5 87.83 38.5 85.48 52.8 85.48 52.8 85.48 52.93 85.46 53.05 85.43 53.16 85.43 53.16 84.4 59.4 84.4 59.4 84.4 59.4 86.89 59.4 86.89 59.4 87.22 59.4 87.54 59.51 87.76 59.84 87.97 60.06 88.08 60.5 87.97 60.83 87.97 60.83 86.89 65.23 86.89 65.23 86.78 65.67 86.35 66 85.81 66 85.81 66 51.18 66 51.18 66 50.64 66 50.2 65.67 50.1 65.12 50.1 65.12 49.01 60.72 49.01 60.72 48.91 60.39 49.01 60.06 49.23 59.73 49.45 59.51 49.77 59.4 50.1 59.4 50.1 59.4 52.59 59.4 52.59 59.4 52.59 59.4 49.16 38.5 49.16 38.5 49.16 38.5 45.77 38.5 45.77 38.5 45.12 38.5 44.69 38.06 44.69 37.4 44.69 37.4 44.69 31.9 44.69 31.9 44.69 31.24 45.12 30.8 45.77 30.8 45.77 30.8 54.57 30.8 54.57 30.8 48.82 23.97 48.91 14.09 48.91 3.85 49.01 2.97 49.01 1.98 49.01 1.1 49.01 0.77 49.12 0.44 49.34 0.22 49.66 0.11 49.99-0 50.21-0 51.39 0.18 52.55 0.66 53.64 1.36 53.87 1.43 54.07 1.56 54.22 1.74 57.04 3.73 59.46 7.01 61.11 9.72 62.61 6.52 64.85 3.37 67.84 0.33 67.95 0.11 68.17-0 68.49-0 68.82-0 69.04 0.11 69.25 0.33 72.21 3.34 74.44 6.45 75.94 9.62 78.34 5.7 82.32 0.66 86.78-0 87.11-0 87.43-0 87.65 0.22 87.87 0.44 87.97 0.77 87.97 1.1 87.97 1.98 87.97 2.97 87.97 3.85 87.97 14.19 88.06 23.98 82.32 30.8 82.32 30.8 91.22 30.8 91.22 30.8 91.87 30.8 92.3 31.24 92.3 31.9 92.3 31.9 92.3 37.4 92.3 37.4 92.3 38.06 91.87 38.5 91.22 38.5ZM 51.5 61.6C 51.5 61.6 52.04 63.8 52.04 63.8 52.04 63.8 84.94 63.8 84.94 63.8 84.94 63.8 85.48 61.6 85.48 61.6 85.48 61.6 83.1 61.6 83.1 61.6 83.1 61.6 53.88 61.6 53.88 61.6 53.88 61.6 51.5 61.6 51.5 61.6ZM 52.1 42.9C 52.1 42.9 58.75 42.9 58.75 42.9 59.4 42.9 59.84 43.34 59.84 44 59.84 44.66 59.4 45.1 58.75 45.1 58.75 45.1 52.45 45.1 52.45 45.1 52.45 45.1 54.75 59.4 54.75 59.4 54.75 59.4 82.13 59.4 82.13 59.4 82.13 59.4 83.04 53.9 83.04 53.9 83.04 53.9 73.91 53.9 73.91 53.9 73.26 53.9 72.82 53.46 72.82 52.8 72.82 52.14 73.26 51.7 73.91 51.7 73.91 51.7 83.41 51.7 83.41 51.7 83.41 51.7 85.59 38.5 85.59 38.5 85.59 38.5 51.4 38.5 51.4 38.5 51.4 38.5 52.1 42.9 52.1 42.9ZM 54.21 15.29C 54 11.65 53.58 7.49 52.36 3.11 51.96 2.88 51.57 2.68 51.18 2.53 51.18 2.97 51.18 3.41 51.18 3.85 51.07 14.52 51.07 24.53 57.56 30.8 57.56 30.8 58.9 30.8 58.9 30.8 55.26 26.41 54.78 21.14 54.21 15.29ZM 55.22 5.41C 55.92 8.89 56.23 12.14 56.48 15.07 57.11 21.5 57.54 26.58 61.87 30.8 61.87 30.8 62 30.8 62 30.8 58.43 24.64 57.78 18.37 60.05 12.1 58.48 9.31 56.83 7.06 55.22 5.41ZM 74.77 12.43C 74.73 12.29 74.7 12.16 74.7 12.02 73.3 8.44 71.02 5.27 68.6 2.64 66.05 5.33 63.67 8.56 62.26 12.24 62.25 12.3 62.24 12.37 62.22 12.43 61.4 14.58 60.97 16.74 60.92 18.9 60.92 18.91 60.92 18.92 60.92 18.93 60.92 19.02 60.92 19.11 60.92 19.2 60.91 22.13 61.61 25.25 63.28 28.52 63.68 29.28 64.13 30.04 64.63 30.8 64.63 30.8 67.41 30.8 67.41 30.8 67.41 30.8 67.41 14.3 67.41 14.3 67.41 13.64 67.84 13.2 68.49 13.2 69.14 13.2 69.58 13.64 69.58 14.3 69.58 14.3 69.58 30.8 69.58 30.8 69.58 30.8 72.5 30.8 72.5 30.8 73.84 28.68 74.76 26.61 75.34 24.61 75.37 24.52 75.39 24.42 75.42 24.33 75.43 24.3 75.43 24.27 75.44 24.25 76.48 20.33 76.25 16.4 74.77 12.43ZM 76.95 12.08C 77.13 12.61 77.29 13.14 77.44 13.67 78.47 17.32 78.48 20.96 77.54 24.58 77.01 26.67 76.16 28.75 74.99 30.8 74.99 30.8 75.23 30.8 75.23 30.8 79.55 26.67 79.98 21.5 80.61 15.07 80.87 12.08 81.19 8.83 81.92 5.26 80.26 6.92 78.57 9.21 76.95 12.08ZM 85.81 3.85C 85.81 3.41 85.81 2.97 85.81 2.53 85.41 2.69 85.01 2.89 84.59 3.13 83.41 7.56 83.09 11.57 82.67 15.18 82.1 21.18 81.61 26.41 77.9 30.8 77.9 30.8 79.42 30.8 79.42 30.8 85.92 24.53 85.92 14.52 85.81 3.85ZM 90.14 33C 90.14 33 79.86 33 79.86 33 79.86 33 73.04 33 73.04 33 73.04 33 64.06 33 64.06 33 64.06 33 63.95 33 63.95 33 63.95 33 57.13 33 57.13 33 57.13 33 46.85 33 46.85 33 46.85 33 46.85 36.3 46.85 36.3 46.85 36.3 50.1 36.3 50.1 36.3 50.1 36.3 86.89 36.3 86.89 36.3 86.89 36.3 90.14 36.3 90.14 36.3 90.14 36.3 90.14 33 90.14 33ZM 69.58 53.9C 69.58 53.9 68.49 53.9 68.49 53.9 67.84 53.9 67.41 53.46 67.41 52.8 67.41 52.14 67.84 51.7 68.49 51.7 68.49 51.7 69.58 51.7 69.58 51.7 70.23 51.7 70.66 52.14 70.66 52.8 70.66 53.46 70.23 53.9 69.58 53.9ZM 64.17 45.1C 64.17 45.1 63.08 45.1 63.08 45.1 62.43 45.1 62 44.66 62 44 62 43.34 62.43 42.9 63.08 42.9 63.08 42.9 64.17 42.9 64.17 42.9 64.81 42.9 65.25 43.34 65.25 44 65.25 44.66 64.81 45.1 64.17 45.1ZM 35.63 30.44C 34.76 30.44 33.84 30.35 32.91 30.18 33.11 32.82 32.66 35.24 32.04 37.2 32.63 36.95 33.27 36.74 33.97 36.52 34.83 34.75 36.03 33.61 37.51 33.17 39.24 32.62 41.21 32.93 43.33 34.1 43.33 34.1 43.48 34.18 43.48 34.18 43.88 34.34 44.03 34.8 43.88 35.19 43.88 35.19 43.88 35.27 43.8 35.35 43.48 36.05 42.78 37.92 40.73 38.7 40.11 38.94 39.4 39.01 38.69 39.01 37.43 39.01 36.02 38.66 34.47 37.96 33 38.4 31.94 38.72 31.11 39.6 30.85 40.17 30.6 40.65 30.39 41.04 30.39 41.04 38.46 41.04 38.46 41.04 38.93 41.04 39.24 41.35 39.24 41.82 39.24 41.82 39.24 45.72 39.24 45.72 39.24 46.19 38.93 46.5 38.46 46.5 38.46 46.5 36 46.5 36 46.5 36 46.5 34.3 56.64 34.3 56.64 34.3 56.73 34.28 56.82 34.25 56.9 34.25 56.9 33.51 61.32 33.51 61.32 33.51 61.32 35.32 61.32 35.32 61.32 35.55 61.32 35.79 61.4 35.94 61.63 36.1 61.79 36.18 62.1 36.1 62.33 36.1 62.33 35.32 65.45 35.32 65.45 35.24 65.77 34.92 66 34.53 66 34.53 66 9.4 66 9.4 66 9.01 66 8.7 65.77 8.62 65.38 8.62 65.38 7.83 62.26 7.83 62.26 7.75 62.02 7.83 61.79 7.99 61.55 8.15 61.4 8.38 61.32 8.62 61.32 8.62 61.32 10.42 61.32 10.42 61.32 10.42 61.32 7.94 46.5 7.94 46.5 7.94 46.5 5.48 46.5 5.48 46.5 5.01 46.5 4.69 46.19 4.69 45.72 4.69 45.72 4.69 41.82 4.69 41.82 4.69 41.35 5.01 41.04 5.48 41.04 5.48 41.04 13.51 41.04 13.51 41.04 13.28 40.63 13.03 40.13 12.77 39.55 11.93 38.76 10.86 38.38 9.38 37.94 7.86 38.68 6.48 39.01 5.24 39.01 4.53 39.01 3.83 38.86 3.2 38.62 1.16 37.84 0.37 35.97 0.14 35.27 0.14 35.19 0.06 35.12 0.06 35.12-0.1 34.73 0.06 34.26 0.45 34.1 0.45 34.1 0.61 34.02 0.61 34.02 2.81 32.85 4.77 32.54 6.42 33.09 7.95 33.62 9.19 34.82 10.05 36.62 10.72 36.84 11.33 37.03 11.9 37.27 11.27 35.29 10.81 32.84 11.03 30.16 10.06 30.35 9.18 30.44 8.38 30.44 6.58 30.44 5.01 30.05 3.75 29.27 1.86 28.1 0.61 26.15 0.06 23.49 0.06 23.49 0.06 23.34 0.06 23.34-0.02 23.1-0.02 22.87 0.06 22.71 0.14 22.56 0.37 22.4 0.61 22.32 1.52 22.12 8.74 20.62 11.78 26.41 12.17 25.19 12.73 23.96 13.49 22.71 13.72 22.32 14.19 22.25 14.59 22.48 14.9 22.64 15.06 23.1 14.82 23.49 13.07 26.38 12.5 29.23 12.54 31.78 13.02 31.04 13.61 30.44 14.27 29.97 15.92 28.95 18.12 28.8 20.48 29.42 20.87 29.5 21.18 29.97 21.1 30.36 21.1 30.36 21.1 30.44 21.1 30.44 20.95 31.22 20.48 33.48 18.43 34.8 17.49 35.43 16.31 35.74 14.98 35.74 14.34 35.74 13.71 35.67 13.03 35.55 13.69 38.28 14.84 40.3 15.32 41.04 15.32 41.04 28.62 41.04 28.62 41.04 28.87 40.65 29.31 39.92 29.76 38.92 29.78 38.83 29.82 38.75 29.88 38.66 30.26 37.8 30.64 36.75 30.94 35.56 30.26 35.67 29.65 35.74 29.03 35.74 27.7 35.74 26.44 35.43 25.58 34.8 23.46 33.48 22.99 31.22 22.83 30.44 22.83 30.44 22.83 30.36 22.83 30.36 22.75 29.97 22.99 29.5 23.38 29.42 23.38 29.42 23.46 29.42 23.46 29.42 25.89 28.8 28.09 29.03 29.74 29.97 30.41 30.36 30.98 30.89 31.43 31.54 31.43 29.05 30.83 26.29 29.11 23.49 28.88 23.1 29.03 22.64 29.35 22.4 29.74 22.17 30.21 22.32 30.45 22.64 31.27 23.98 31.85 25.33 32.25 26.64 35.26 20.65 42.41 22.11 43.33 22.32 43.56 22.4 43.72 22.48 43.8 22.64 43.88 22.79 43.95 23.1 43.95 23.26 43.95 23.26 43.95 23.42 43.95 23.42 43.4 26.07 42.15 28.02 40.34 29.19 39.01 30.05 37.44 30.44 35.63 30.44ZM 38.22 36.75C 37.67 36.83 37.15 36.95 36.63 37.12 38.05 37.57 39.22 37.6 40.19 37.22 41.28 36.75 41.91 35.82 42.23 35.19 41.28 34.73 39.64 34.1 38.07 34.65 37.45 34.79 36.92 35.13 36.46 35.61 36.94 35.47 37.43 35.36 37.91 35.27 38.38 35.19 38.77 35.51 38.85 35.9 38.93 36.29 38.61 36.75 38.22 36.75ZM 5.95 34.57C 4.38 34.1 2.65 34.73 1.79 35.19 2.1 35.9 2.65 36.83 3.83 37.22 4.77 37.6 5.91 37.57 7.3 37.15 6.76 36.96 6.21 36.83 5.63 36.75 5.24 36.68 4.93 36.29 5.01 35.9 5.08 35.51 5.48 35.19 5.87 35.27 6.45 35.38 7.04 35.52 7.62 35.71 7.12 35.16 6.55 34.77 5.95 34.57ZM 1.71 23.73C 2.02 24.82 2.73 26.77 4.53 27.94 5.87 28.8 7.67 29.1 9.78 28.83 9.76 28.82 9.74 28.81 9.72 28.8 8.23 27.71 6.89 26.85 5.24 26.46 4.85 26.38 4.61 25.91 4.69 25.52 4.77 25.13 5.24 24.82 5.63 24.98 7.43 25.42 8.87 26.29 10.35 27.32 8.26 23.21 3.71 23.37 1.71 23.73ZM 17.65 33.48C 18.83 32.78 19.38 31.53 19.53 30.75 17.81 30.44 16.31 30.59 15.14 31.29 14.69 31.55 14.31 31.9 13.99 32.33 14.16 32.23 14.34 32.15 14.51 32.07 14.9 31.92 15.37 32 15.53 32.39 15.69 32.78 15.53 33.24 15.21 33.4 14.82 33.6 14.42 33.82 13.99 34.08 15.49 34.28 16.71 34.07 17.65 33.48ZM 9.64 62.88C 9.64 62.88 10.03 64.44 10.03 64.44 10.03 64.44 33.9 64.44 33.9 64.44 33.9 64.44 34.3 62.88 34.3 62.88 34.3 62.88 32.57 62.88 32.57 62.88 32.57 62.88 11.37 62.88 11.37 62.88 11.37 62.88 9.64 62.88 9.64 62.88ZM 10.07 49.62C 10.07 49.62 14.9 49.62 14.9 49.62 15.37 49.62 15.69 49.93 15.69 50.4 15.69 50.87 15.37 51.18 14.9 51.18 14.9 51.18 10.33 51.18 10.33 51.18 10.33 51.18 11.99 61.32 11.99 61.32 11.99 61.32 31.86 61.32 31.86 61.32 31.86 61.32 32.52 57.42 32.52 57.42 32.52 57.42 25.89 57.42 25.89 57.42 25.42 57.42 25.11 57.11 25.11 56.64 25.11 56.17 25.42 55.86 25.89 55.86 25.89 55.86 32.79 55.86 32.79 55.86 32.79 55.86 34.37 46.5 34.37 46.5 34.37 46.5 9.56 46.5 9.56 46.5 9.56 46.5 10.07 49.62 10.07 49.62ZM 6.26 42.6C 6.26 42.6 6.26 44.94 6.26 44.94 6.26 44.94 8.62 44.94 8.62 44.94 8.62 44.94 35.32 44.94 35.32 44.94 35.32 44.94 37.67 44.94 37.67 44.94 37.67 44.94 37.67 42.6 37.67 42.6 37.67 42.6 6.26 42.6 6.26 42.6ZM 28.8 31.22C 27.7 30.59 26.13 30.44 24.48 30.75 24.72 31.53 25.19 32.78 26.36 33.48 27.26 34.05 28.45 34.26 29.84 34.11 29.45 33.87 29.06 33.66 28.64 33.48 28.25 33.32 28.09 32.85 28.33 32.46 28.48 32.07 29.03 31.92 29.35 32.15 29.65 32.32 29.94 32.48 30.24 32.65 29.86 32.06 29.37 31.59 28.8 31.22ZM 33.86 27.04C 35.27 26.12 36.59 25.25 38.3 24.82 38.69 24.74 39.16 24.98 39.24 25.37 39.32 25.76 39.09 26.22 38.69 26.3 37.04 26.69 35.87 27.55 34.3 28.56 34.19 28.64 34.09 28.71 33.98 28.78 36.27 29.13 38.07 28.85 39.48 27.94 41.36 26.77 41.99 24.9 42.31 23.73 40.35 23.38 35.97 23.22 33.86 27.04ZM 22.75 57.42C 22.75 57.42 21.97 57.42 21.97 57.42 21.5 57.42 21.18 57.11 21.18 56.64 21.18 56.17 21.5 55.86 21.97 55.86 21.97 55.86 22.75 55.86 22.75 55.86 23.22 55.86 23.54 56.17 23.54 56.64 23.54 57.11 23.22 57.42 22.75 57.42ZM 18.83 51.18C 18.83 51.18 18.04 51.18 18.04 51.18 17.57 51.18 17.26 50.87 17.26 50.4 17.26 49.93 17.57 49.62 18.04 49.62 18.04 49.62 18.83 49.62 18.83 49.62 19.3 49.62 19.61 49.93 19.61 50.4 19.61 50.87 19.3 51.18 18.83 51.18Z" fill="rgb(0,0,0)"/></g><text transform="matrix(0.75,0.00,0.00,0.75,333.91,69.47)" class="style0"><tspan x="0.00 64.46 125.91 216.00 286.34" fill="rgb(255,255,255)">Store</tspan></text><text transform="matrix(0.61,0.00,0.00,0.61,129.37,95.75)" class="style1"><tspan x="0.00 21.36 47.64 69.10 89.01 100.61 123.30 145.66 156.55 174.87 197.39 220.90 240.25 250.05 268.48 291.00 309.30 335.84 354.13" fill="rgb(255,255,255)">amazing shop themes</tspan></text></g></svg>